<?xml version="1.0" encoding="UTF-8" standalone="no"?>
<svg width="200px" height="150px" viewBox="0 0 200 150" version="1.1" xmlns="http://www.w3.org/2000/svg" xmlns:xlink="http://www.w3.org/1999/xlink" xmlns:sketch="http://www.bohemiancoding.com/sketch/ns">
    <title>Save for Good</title>
    <desc>Save for Good Logo (Solid Black)</desc>
    <defs></defs>
    <g id="Page-1" stroke="none" stroke-width="1" fill="none" fill-rule="evenodd" sketch:type="MSPage">
        <path d="M19.4470739,102.823935 L41.2567763,97.8839664 C41.2567763,97.8839664 64.1907105,105.733011 76.2963592,109.828212 C88.4020079,113.923414 94.9452399,115.430402 101.511745,115.25532 C108.078249,115.080237 140.764454,94.1854965 152.488025,86.2778442 C164.211596,78.3701918 190.696301,59.6407299 190.696301,59.6407299 C190.696301,59.6407299 185.107591,52.076616 178.424009,51.8754577 C171.740427,51.6742995 119.008116,71.4293086 119.008116,71.4293086 C119.008116,71.4293086 116.343822,82.1770616 112.524592,84.7531628 C108.705362,87.3292641 99.0320904,86.5532972 92.7958984,85.7325927 C86.5597064,84.9118881 76.3217917,83.7588376 73.9305772,82.6345859 C71.5393626,81.5103343 70.1292472,78.9835183 70.1292472,78.9835183 C70.1292472,78.9835183 69.7867272,77.6391602 71.453136,77.8996744 C73.1195448,78.1601886 100.972295,83.2119839 107.963927,81.2913336 C114.955558,79.3706833 112.83185,70.9757668 112.83185,70.9757668 C112.83185,70.9757668 82.0229283,54.4269064 69.4563019,52.7967093 C56.8896755,51.1665122 48.7730281,51.8723801 40.2197178,56.3423944 C31.6664075,60.8124087 3.44061848,73.5409227 1.46849064,76.1695887 C-0.503637209,78.7982547 15.8762512,100.97269 15.8762512,100.97269 L19.4470739,102.823935 Z" id="Oval-1" fill="#000000" sketch:type="MSShapeGroup" transform="translate(96.000000, 83.571397) rotate(16.000000) translate(-96.000000, -83.571397) "></path>
        <path d="M147.515217,72.4475425 C148.350372,70.402943 148.981953,68.23875 149.381081,65.9751844 C152.402033,48.8425138 140.962225,32.5047747 123.829554,29.4838226 C108.988383,26.8669236 94.7437182,35.1012149 89.235068,48.4873526 L89.2522323,48.4760069 C89.2522323,48.4760069 114.724381,68.5388244 118.911514,74.5025407 C118.911514,74.5025405 142.663625,72.5097965 147.515217,72.4475425 Z" id="Oval-2" fill="#000000" sketch:type="MSShapeGroup"></path>
    </g>
</svg>